<svg xmlns="http://www.w3.org/2000/svg" viewBox="0 0 912 98" width="912" height="98" role="img"><rect width="912" height="98" fill="#14110f"/><svg x="8" y="0" width="224" height="84" viewBox="0 0 224 84"><rect width="224" height="84" fill="#c0b070" fill-opacity="0.18"/><path d="M137.69 21.81L137.69 22.12L137.69 22.92L137.69 24.01L137.69 25.22L137.69 26.33L137.69 27.19L137.69 27.91L137.69 28.48L137.69 28.81L137.69 28.87L137.69 28.87L137.69 28.87L137.69 28.87L137.69 28.84L137.69 28.52L137.69 27.95L137.69 27.25L137.69 26.48L137.69 25.8L137.69 25.33L137.69 25.2L137.69 25.2L137.69 25.2L137.69 25.2L137.69 25.2L137.69 25.2L137.69 25.2L137.69 25.2L137.69 25.5L137.69 26.15L137.69 26.81L137.69 27.1L137.96 27.26L138.7 27.69L139.88 28.4L141.42 29.4L143.24 30.72L145.15 32.34L146.83 34.16L147.86 35.93L148.3 37.66L148.45 39.64L148.23 41.65L147.64 43.58L146.69 45.36L145.43 46.94L143.89 48.25L142.14 49.26L140.23 49.92L138.23 50.21L136.21 50.12L134.25 49.66L132.4 48.84L130.74 47.68L129.33 46.24L128.21 44.56L127.42 42.7L126.99 40.73L126.94 38.71L127.27 36.71L127.97 34.82L129.01 33.08L130.35 31.57L131.95 30.34L133.75 29.43L135.7 28.87L137.71 28.69L139.72 28.88L141.66 29.44L143.46 30.36L145.05 31.6L146.39 33.12L147.42 34.85L148.11 36.75L148.43 38.75L148.38 40.77L147.94 42.74L147.15 44.6L146.02 46.28L144.6 47.71L142.94 48.86L141.09 49.67L139.12 50.13L137.1 50.21L135.1 49.91L133.19 49.24L131.44 48.23L129.91 46.91L128.66 45.33L127.72 43.54L127.13 41.6L126.92 39.6L127.08 37.58L127.62 35.63L128.51 33.82L129.72 32.2L131.22 30.84L132.94 29.79L134.83 29.07L136.82 28.72L138.84 28.75L140.82 29.15L142.69 29.92L144.38 31.02L145.84 32.42L147.01 34.06L147.85 35.9L148.34 37.86L148.45 39.88L148.18 41.88L147.54 43.8L146.55 45.56L145.26 47.11L143.69 48.39L141.92 49.36L140.06 49.96L138.3 50.21L136.76 50.4L135.6 50.69L134.91 51.13L134.69 51.76L134.86 52.58L135.32 53.55L135.95 54.57L136.6 55.54L137.17 56.36L137.55 56.9L137.69 57.1" fill="none" stroke="#a17521" stroke-width="1.4" stroke-linecap="round" stroke-linejoin="round"/><path d="M82.92 23.51L82.92 23.82L82.92 24.61L82.92 25.71L82.92 26.91L82.92 28.03L82.92 28.89L82.92 29.61L82.92 30.17L82.92 30.51L82.92 30.56L82.92 30.56L82.92 30.56L82.92 30.56L82.92 30.53L82.92 30.22L82.92 29.65L82.92 28.95L82.92 28.18L82.92 27.49L82.92 27.03L82.92 26.9L82.92 26.9L82.92 26.9L82.92 26.9L82.92 26.9L82.92 26.9L82.92 26.9L82.92 26.9L82.92 27.2L82.92 27.85L82.92 28.5L82.92 28.8L83.19 28.95L83.94 29.39L85.11 30.1L86.66 31.1L88.48 32.41L90.38 34.03L92.06 35.86L93.09 37.62L93.54 39.36L93.69 41.33L93.46 43.34L92.87 45.27L91.92 47.06L90.66 48.64L89.13 49.95L87.37 50.96L85.46 51.62L83.47 51.91L81.45 51.82L79.48 51.36L77.63 50.53L75.97 49.38L74.56 47.94L73.44 46.26L72.65 44.4L72.23 42.42L72.18 40.4L72.51 38.41L73.2 36.51L74.24 34.78L75.58 33.27L77.18 32.04L78.99 31.13L80.93 30.57L82.94 30.38L84.95 30.58L86.89 31.14L88.69 32.06L90.29 33.3L91.63 34.81L92.66 36.55L93.34 38.45L93.67 40.44L93.61 42.46L93.18 44.44L92.38 46.3L91.25 47.97L89.83 49.41L88.17 50.55L86.32 51.37L84.35 51.83L82.33 51.9L80.33 51.61L78.43 50.94L76.68 49.93L75.15 48.61L73.89 47.02L72.95 45.23L72.37 43.3L72.15 41.29L72.31 39.28L72.85 37.33L73.74 35.52L74.96 33.9L76.45 32.54L78.17 31.49L80.06 30.77L82.05 30.42L84.07 30.44L86.05 30.85L87.92 31.61L89.61 32.72L91.07 34.12L92.24 35.76L93.09 37.6L93.57 39.56L93.68 41.58L93.41 43.58L92.77 45.5L91.79 47.26L90.49 48.81L88.93 50.09L87.15 51.05L85.29 51.66L83.54 51.91L81.99 52.1L80.83 52.38L80.14 52.82L79.92 53.46L80.1 54.28L80.56 55.24L81.18 56.27L81.83 57.24L82.4 58.05L82.78 58.6L82.92 58.8" fill="none" stroke="#902722" stroke-width="1.4" stroke-linecap="round" stroke-linejoin="round"/><path d="M84.62 60.49L84.62 60.18L84.62 59.39L84.62 58.29L84.62 57.09L84.62 55.97L84.62 55.11L84.62 54.39L84.62 53.83L84.62 53.49L84.62 53.44L84.62 53.44L84.62 53.44L84.62 53.44L84.62 53.47L84.62 53.78L84.62 54.35L84.62 55.05L84.62 55.82L84.62 56.51L84.62 56.97L84.62 57.1L84.62 57.1L84.62 57.1L84.62 57.1L84.62 57.1L84.62 57.1L84.62 57.1L84.62 57.1L84.62 56.8L84.62 56.15L84.62 55.5L84.62 55.2L84.35 55.05L83.6 54.61L82.42 53.9L80.88 52.9L79.06 51.59L77.16 49.97L75.48 48.14L74.44 46.38L74 44.64L73.85 42.67L74.07 40.66L74.67 38.73L75.61 36.94L76.87 35.36L78.41 34.05L80.16 33.04L82.07 32.38L84.07 32.09L86.09 32.18L88.06 32.64L89.9 33.47L91.56 34.62L92.98 36.06L94.1 37.74L94.88 39.6L95.31 41.58L95.36 43.6L95.03 45.59L94.34 47.49L93.3 49.22L91.95 50.73L90.35 51.96L88.55 52.87L86.61 53.43L84.6 53.62L82.58 53.42L80.64 52.86L78.85 51.94L77.25 50.7L75.91 49.19L74.88 47.45L74.19 45.55L73.87 43.56L73.93 41.54L74.36 39.56L75.16 37.7L76.28 36.03L77.7 34.59L79.37 33.45L81.22 32.63L83.19 32.17L85.2 32.1L87.2 32.39L89.11 33.06L90.86 34.07L92.39 35.39L93.64 36.98L94.58 38.77L95.17 40.7L95.38 42.71L95.22 44.72L94.69 46.67L93.79 48.48L92.58 50.1L91.09 51.46L89.36 52.51L87.47 53.23L85.49 53.58L83.46 53.56L81.49 53.15L79.62 52.39L77.92 51.28L76.46 49.88L75.29 48.24L74.45 46.4L73.97 44.44L73.86 42.42L74.12 40.42L74.76 38.5L75.75 36.74L77.05 35.19L78.61 33.91L80.38 32.95L82.25 32.34L84 32.09L85.54 31.9L86.7 31.62L87.39 31.18L87.62 30.54L87.44 29.72L86.98 28.76L86.36 27.73L85.7 26.76L85.14 25.95L84.76 25.4L84.62 25.2" fill="none" stroke="#ffca39" stroke-width="1.4" stroke-linecap="round" stroke-linejoin="round"/><path d="M142.78 62.19L142.78 61.88L142.78 61.08L142.78 59.99L142.78 58.78L142.78 57.67L142.78 56.81L142.78 56.09L142.78 55.52L142.78 55.19L142.78 55.13L142.78 55.13L142.78 55.13L142.78 55.13L142.78 55.16L142.78 55.48L142.78 56.05L142.78 56.75L142.78 57.52L142.78 58.2L142.78 58.67L142.78 58.8L142.78 58.8L142.78 58.8L142.78 58.8L142.78 58.8L142.78 58.8L142.78 58.8L142.78 58.8L142.78 58.5L142.78 57.85L142.78 57.19L142.78 56.9L142.51 56.74L141.76 56.31L140.59 55.6L139.04 54.6L137.22 53.28L135.32 51.66L133.64 49.84L132.6 48.07L132.16 46.34L132.01 44.36L132.23 42.35L132.83 40.42L133.77 38.64L135.04 37.06L136.57 35.75L138.32 34.74L140.23 34.08L142.23 33.79L144.25 33.88L146.22 34.34L148.06 35.16L149.72 36.32L151.14 37.76L152.26 39.44L153.05 41.3L153.47 43.27L153.52 45.29L153.19 47.29L152.5 49.18L151.46 50.92L150.12 52.43L148.51 53.66L146.71 54.57L144.77 55.13L142.76 55.31L140.75 55.12L138.81 54.56L137.01 53.64L135.41 52.4L134.07 50.88L133.04 49.15L132.35 47.25L132.03 45.25L132.09 43.23L132.52 41.26L133.32 39.4L134.44 37.72L135.86 36.29L137.53 35.14L139.38 34.33L141.35 33.87L143.36 33.79L145.36 34.09L147.27 34.76L149.02 35.77L150.55 37.09L151.8 38.67L152.74 40.46L153.33 42.4L153.55 44.4L153.38 46.42L152.85 48.37L151.95 50.18L150.74 51.8L149.25 53.16L147.52 54.21L145.64 54.93L143.65 55.28L141.63 55.25L139.65 54.85L137.78 54.08L136.08 52.98L134.62 51.58L133.45 49.94L132.61 48.1L132.13 46.14L132.02 44.12L132.29 42.12L132.92 40.2L133.91 38.44L135.21 36.89L136.77 35.61L138.54 34.64L140.41 34.04L142.16 33.79L143.7 33.6L144.86 33.31L145.55 32.87L145.78 32.24L145.6 31.42L145.14 30.45L144.52 29.43L143.86 28.46L143.3 27.64L142.92 27.1L142.78 26.9" fill="none" stroke="#f8433a" stroke-width="1.4" stroke-linecap="round" stroke-linejoin="round"/></svg><path d="M8 0L8 84" stroke="#2a221c" stroke-width="1" fill="none"/><svg x="8" y="84" width="224" height="14" viewBox="0 0 224 14"><rect x="0.5" width="223" height="14" fill="#c0b070"/><text x="3" y="10" fill="#1d1510" font-size="9" font-family="ui-monospace, Menlo, monospace">balance-and-swing</text></svg><svg x="232" y="0" width="112" height="84" viewBox="0 0 112 84"><rect width="112" height="84" fill="#6fb3a8" fill-opacity="0.18"/><path d="M81.69 57.1L81.34 57.06L80.4 56.93L78.99 56.7L77.26 56.35L75.32 55.87L73.32 55.25L71.37 54.54L69.58 53.78L68.04 53.05L66.85 52.41L66.08 51.97L65.81 51.81L65.7 51.91L65.38 52.22L64.84 52.7L64.07 53.32L63.07 54.04L61.82 54.79L60.3 55.52L58.54 56.17L56.53 56.65L54.31 56.9L51.92 56.85L49.43 56.45L46.91 55.65L44.44 54.42L42.13 52.75L40.07 50.67L38.35 48.23L37.06 45.48L36.26 42.52L35.99 39.45L36.26 36.39L37.06 33.43L38.35 30.68L40.07 28.24L42.13 26.16L44.44 24.49L46.91 23.26L49.43 22.46L51.92 22.05L54.31 22.01L56.53 22.26L58.54 22.74L60.3 23.39L61.82 24.12L63.07 24.87L64.07 25.59L64.84 26.21L65.38 26.69L65.7 27L65.81 27.1L66.08 26.94L66.85 26.5L68.04 25.86L69.58 25.12L71.37 24.37L73.32 23.65L75.32 23.04L77.26 22.56L78.99 22.2L80.4 21.98L81.34 21.85L81.69 21.81" fill="none" stroke="#a17521" stroke-width="1.4" stroke-linecap="round" stroke-linejoin="round"/><path d="M26.92 58.8L27.26 58.76L28.2 58.63L29.61 58.4L31.35 58.05L33.29 57.56L35.29 56.95L37.24 56.24L39.03 55.48L40.56 54.74L41.75 54.11L42.52 53.67L42.8 53.5L42.69 53.4L42.39 53.07L41.9 52.54L41.28 51.77L40.57 50.77L39.81 49.51L39.08 48L38.44 46.24L37.96 44.23L37.7 42.01L37.75 39.62L38.15 37.13L38.96 34.6L40.19 32.14L41.86 29.82L43.93 27.76L46.38 26.05L49.12 24.76L52.08 23.96L55.15 23.68L58.22 23.96L61.18 24.76L63.92 26.05L66.37 27.76L68.45 29.82L70.11 32.14L71.34 34.6L72.15 37.13L72.55 39.62L72.6 42.01L72.35 44.23L71.86 46.24L71.22 48L70.49 49.51L69.73 50.77L69.02 51.77L68.4 52.54L67.92 53.07L67.61 53.4L67.5 53.5L67.78 53.67L68.55 54.11L69.74 54.74L71.27 55.48L73.06 56.24L75.01 56.95L77.02 57.56L78.95 58.05L80.69 58.4L82.1 58.63L83.04 58.76L83.38 58.8" fill="none" stroke="#902722" stroke-width="1.4" stroke-linecap="round" stroke-linejoin="round"/><path d="M28.62 25.2L28.96 25.24L29.9 25.37L31.31 25.6L33.05 25.95L34.98 26.44L36.99 27.05L38.94 27.76L40.73 28.52L42.26 29.26L43.45 29.89L44.22 30.33L44.5 30.5L44.6 30.39L44.93 30.08L45.46 29.6L46.23 28.98L47.23 28.27L48.49 27.51L50 26.78L51.76 26.14L53.77 25.65L55.99 25.4L58.38 25.45L60.87 25.85L63.4 26.66L65.86 27.89L68.18 29.55L70.24 31.63L71.95 34.08L73.24 36.82L74.04 39.78L74.32 42.85L74.04 45.92L73.24 48.88L71.95 51.62L70.24 54.07L68.18 56.14L65.86 57.81L63.4 59.04L60.87 59.85L58.38 60.25L55.99 60.3L53.77 60.04L51.76 59.56L50 58.92L48.49 58.19L47.23 57.43L46.23 56.72L45.46 56.1L44.93 55.61L44.6 55.31L44.5 55.2L44.22 55.36L43.45 55.81L42.26 56.44L40.73 57.18L38.94 57.94L36.99 58.65L34.98 59.26L33.05 59.75L31.31 60.1L29.9 60.33L28.96 60.45L28.62 60.49" fill="none" stroke="#ffca39" stroke-width="1.4" stroke-linecap="round" stroke-linejoin="round"/><path d="M86.78 26.9L86.44 26.94L85.49 27.07L84.09 27.3L82.35 27.65L80.41 28.13L78.41 28.75L76.46 29.46L74.67 30.22L73.14 30.95L71.95 31.59L71.17 32.03L70.9 32.19L71 32.3L71.31 32.62L71.79 33.16L72.41 33.93L73.13 34.93L73.88 36.18L74.61 37.7L75.26 39.46L75.74 41.47L75.99 43.69L75.95 46.08L75.54 48.57L74.74 51.09L73.51 53.56L71.84 55.87L69.76 57.93L67.32 59.65L64.57 60.94L61.61 61.74L58.55 62.01L55.48 61.74L52.52 60.94L49.77 59.65L47.33 57.93L45.25 55.87L43.58 53.56L42.35 51.09L41.55 48.57L41.15 46.08L41.1 43.69L41.35 41.47L41.83 39.46L42.48 37.7L43.21 36.18L43.96 34.93L44.68 33.93L45.3 33.16L45.78 32.62L46.09 32.3L46.19 32.19L45.92 32.03L45.15 31.59L43.96 30.95L42.42 30.22L40.63 29.46L38.68 28.75L36.68 28.13L34.74 27.65L33.01 27.3L31.6 27.07L30.66 26.94L30.31 26.9" fill="none" stroke="#f8433a" stroke-width="1.4" stroke-linecap="round" stroke-linejoin="round"/></svg><path d="M232 0L232 84" stroke="#2a221c" stroke-width="1" fill="none"/><svg x="232" y="84" width="112" height="14" viewBox="0 0 112 14"><rect x="0.5" width="111" height="14" fill="#6fb3a8"/><text x="3" y="10" fill="#1d1510" font-size="9" font-family="ui-monospace, Menlo, monospace">circle</text></svg><svg x="344" y="0" width="112" height="84" viewBox="0 0 112 84"><rect width="112" height="84" fill="#a894c8" fill-opacity="0.18"/><path d="M81.69 21.81L81.75 21.81L81.96 21.82L82.3 21.85L82.77 21.94L83.37 22.13L84.1 22.48L84.93 23.04L85.81 23.86L86.65 24.87L87.42 26.05L88.13 27.4L88.75 28.89L89.29 30.52L89.74 32.25L90.09 34.08L90.33 35.96L90.47 37.89L90.51 39.84L90.43 41.79L90.25 43.71L89.96 45.57L89.57 47.36L89.09 49.05L88.51 50.63L87.86 52.07L87.12 53.35L86.32 54.47L85.46 55.4L84.56 56.14L83.62 56.67L82.66 56.99L81.69 57.1L80.71 56.99L79.75 56.67L78.81 56.14L77.91 55.4L77.05 54.47L76.25 53.35L75.52 52.07L74.86 50.63L74.28 49.05L73.8 47.36L73.41 45.57L73.12 43.71L72.94 41.79L72.87 39.84L72.9 37.89L73.04 35.96L73.28 34.08L73.63 32.25L74.08 30.52L74.62 28.89L75.24 27.4L75.95 26.05L76.72 24.87L77.56 23.86L78.44 23.04L79.28 22.48L80 22.13L80.6 21.94L81.08 21.85L81.42 21.82L81.62 21.81L81.69 21.81" fill="none" stroke="#a17521" stroke-width="1.4" stroke-linecap="round" stroke-linejoin="round"/><path d="M83.38 58.8L83.32 58.8L83.11 58.79L82.77 58.75L82.3 58.66L81.7 58.47L80.97 58.13L80.14 57.56L79.26 56.75L78.42 55.74L77.65 54.56L76.94 53.21L76.32 51.71L75.78 50.09L75.33 48.35L74.98 46.53L74.74 44.64L74.6 42.71L74.56 40.76L74.64 38.82L74.82 36.9L75.11 35.04L75.5 33.25L75.98 31.55L76.56 29.98L77.21 28.54L77.95 27.25L78.75 26.14L79.61 25.21L80.51 24.47L81.45 23.94L82.41 23.61L83.38 23.51L84.36 23.61L85.32 23.94L86.26 24.47L87.16 25.21L88.02 26.14L88.82 27.25L89.55 28.54L90.21 29.98L90.79 31.55L91.27 33.25L91.66 35.04L91.95 36.9L92.13 38.82L92.2 40.76L92.17 42.71L92.03 44.64L91.79 46.53L91.44 48.35L90.99 50.09L90.45 51.71L89.83 53.21L89.12 54.56L88.35 55.74L87.51 56.75L86.63 57.56L85.79 58.13L85.07 58.47L84.46 58.66L83.99 58.75L83.65 58.79L83.45 58.8L83.38 58.8" fill="none" stroke="#902722" stroke-width="1.4" stroke-linecap="round" stroke-linejoin="round"/><path d="M28.62 60.49L28.55 60.49L28.35 60.49L28.01 60.45L27.54 60.36L26.93 60.17L26.21 59.82L25.37 59.26L24.49 58.44L23.65 57.44L22.88 56.25L22.17 54.9L21.55 53.41L21.01 51.78L20.56 50.05L20.21 48.23L19.97 46.34L19.83 44.41L19.8 42.46L19.87 40.51L20.05 38.6L20.34 36.73L20.73 34.94L21.21 33.25L21.79 31.67L22.45 30.23L23.18 28.95L23.98 27.83L24.84 26.9L25.74 26.17L26.68 25.63L27.64 25.31L28.62 25.2L29.59 25.31L30.55 25.63L31.49 26.17L32.39 26.9L33.25 27.83L34.05 28.95L34.79 30.23L35.44 31.67L36.02 33.25L36.5 34.94L36.89 36.73L37.18 38.6L37.36 40.51L37.44 42.46L37.4 44.41L37.26 46.34L37.02 48.23L36.67 50.05L36.22 51.78L35.68 53.41L35.06 54.9L34.35 56.25L33.58 57.44L32.74 58.44L31.86 59.26L31.03 59.82L30.3 60.17L29.7 60.36L29.23 60.45L28.89 60.49L28.68 60.49L28.62 60.49" fill="none" stroke="#ffca39" stroke-width="1.4" stroke-linecap="round" stroke-linejoin="round"/><path d="M30.31 26.9L30.38 26.9L30.58 26.91L30.92 26.94L31.4 27.03L32 27.23L32.72 27.57L33.56 28.14L34.44 28.95L35.28 29.96L36.05 31.14L36.76 32.49L37.38 33.99L37.92 35.61L38.37 37.35L38.72 39.17L38.96 41.06L39.1 42.99L39.13 44.94L39.06 46.88L38.88 48.8L38.59 50.66L38.2 52.45L37.72 54.14L37.14 55.72L36.48 57.16L35.75 58.44L34.95 59.56L34.09 60.49L33.19 61.23L32.25 61.76L31.29 62.08L30.31 62.19L29.34 62.08L28.38 61.76L27.44 61.23L26.54 60.49L25.68 59.56L24.88 58.44L24.14 57.16L23.49 55.72L22.91 54.14L22.43 52.45L22.04 50.66L21.75 48.8L21.57 46.88L21.49 44.94L21.53 42.99L21.67 41.06L21.91 39.17L22.26 37.35L22.71 35.61L23.25 33.99L23.87 32.49L24.58 31.14L25.35 29.96L26.19 28.95L27.07 28.14L27.9 27.57L28.63 27.23L29.23 27.03L29.7 26.94L30.04 26.91L30.25 26.9L30.31 26.9" fill="none" stroke="#f8433a" stroke-width="1.4" stroke-linecap="round" stroke-linejoin="round"/></svg><path d="M344 0L344 84" stroke="#2a221c" stroke-width="1" fill="none"/><svg x="344" y="84" width="112" height="14" viewBox="0 0 112 14"><rect x="0.5" width="111" height="14" fill="#a894c8"/><text x="3" y="10" fill="#1d1510" font-size="9" font-family="ui-monospace, Menlo, monospace">do-si-do</text></svg><svg x="456" y="0" width="224" height="84" viewBox="0 0 224 84"><rect width="224" height="84" fill="#c0b070" fill-opacity="0.18"/><path d="M137.69 21.81L137.56 22.05L137.28 22.72L137 23.73L136.85 24.94L136.91 26.14L137.13 27.1L137.37 27.88L137.55 28.47L137.67 28.81L137.69 28.87L137.69 28.87L137.69 28.87L137.69 28.87L137.69 28.84L137.69 28.52L137.69 27.95L137.69 27.25L137.69 26.48L137.69 25.8L137.69 25.33L137.69 25.2L137.69 25.2L137.69 25.2L137.69 25.2L137.69 25.2L137.69 25.2L137.69 25.2L137.69 25.2L137.69 25.5L137.69 26.15L137.69 26.81L137.69 27.1L137.96 27.26L138.7 27.69L139.88 28.4L141.42 29.4L143.24 30.72L145.15 32.34L146.83 34.16L147.86 35.93L148.3 37.66L148.45 39.64L148.23 41.65L147.64 43.58L146.69 45.36L145.43 46.94L143.89 48.25L142.14 49.26L140.23 49.92L138.23 50.21L136.21 50.12L134.25 49.66L132.4 48.84L130.74 47.68L129.33 46.24L128.21 44.56L127.42 42.7L126.99 40.73L126.94 38.71L127.27 36.71L127.97 34.82L129.01 33.08L130.35 31.57L131.95 30.34L133.75 29.43L135.7 28.87L137.71 28.69L139.72 28.88L141.66 29.44L143.46 30.36L145.05 31.6L146.39 33.12L147.42 34.85L148.11 36.75L148.43 38.75L148.38 40.77L147.94 42.74L147.15 44.6L146.02 46.28L144.6 47.71L142.94 48.86L141.09 49.67L139.12 50.13L137.1 50.21L135.1 49.91L133.19 49.24L131.44 48.23L129.91 46.91L128.66 45.33L127.72 43.54L127.13 41.6L126.92 39.6L127.08 37.58L127.62 35.63L128.51 33.82L129.72 32.2L131.22 30.84L132.94 29.79L134.83 29.07L136.82 28.72L138.84 28.75L140.82 29.15L142.69 29.92L144.38 31.02L145.84 32.42L147.01 34.06L147.85 35.9L148.34 37.86L148.45 39.88L148.18 41.88L147.54 43.8L146.55 45.56L145.26 47.11L143.69 48.39L141.92 49.36L140.06 49.96L138.3 50.21L136.76 50.4L135.6 50.69L134.91 51.13L134.69 51.76L134.86 52.58L135.32 53.55L135.95 54.57L136.6 55.54L137.17 56.36L137.55 56.9L137.69 57.1" fill="none" stroke="#a17521" stroke-width="1.4" stroke-linecap="round" stroke-linejoin="round"/><path d="M139.38 58.8L139.26 58.55L138.98 57.88L138.7 56.87L138.55 55.66L138.6 54.46L138.83 53.5L139.06 52.72L139.25 52.14L139.36 51.8L139.38 51.74L139.38 51.74L139.38 51.74L139.38 51.74L139.38 51.77L139.38 52.09L139.38 52.65L139.38 53.36L139.38 54.13L139.38 54.81L139.38 55.27L139.38 55.4L139.38 55.4L139.38 55.4L139.38 55.4L139.38 55.4L139.38 55.4L139.38 55.4L139.38 55.4L139.38 55.11L139.38 54.45L139.38 53.8L139.38 53.5L139.11 53.35L138.37 52.91L137.19 52.2L135.65 51.2L133.83 49.89L131.92 48.27L130.24 46.45L129.21 44.68L128.76 42.95L128.62 40.97L128.84 38.96L129.43 37.03L130.38 35.24L131.64 33.67L133.18 32.35L134.93 31.35L136.84 30.69L138.84 30.4L140.86 30.48L142.82 30.95L144.67 31.77L146.33 32.92L147.74 34.36L148.86 36.04L149.65 37.91L150.08 39.88L150.13 41.9L149.8 43.89L149.1 45.79L148.06 47.52L146.72 49.03L145.12 50.27L143.32 51.18L141.37 51.73L139.36 51.92L137.35 51.73L135.41 51.16L133.61 50.24L132.01 49.01L130.68 47.49L129.65 45.75L128.96 43.85L128.64 41.86L128.69 39.84L129.13 37.87L129.92 36.01L131.05 34.33L132.47 32.89L134.13 31.75L135.98 30.93L137.95 30.48L139.97 30.4L141.97 30.7L143.88 31.36L145.63 32.38L147.15 33.7L148.41 35.28L149.35 37.07L149.94 39L150.15 41.01L149.99 43.02L149.45 44.97L148.56 46.79L147.35 48.4L145.85 49.76L144.13 50.82L142.24 51.53L140.25 51.89L138.23 51.86L136.25 51.46L134.38 50.69L132.69 49.59L131.23 48.19L130.06 46.54L129.22 44.7L128.73 42.74L128.62 40.73L128.89 38.72L129.53 36.81L130.51 35.04L131.81 33.49L133.38 32.21L135.15 31.25L137.01 30.65L138.77 30.39L140.31 30.2L141.47 29.92L142.16 29.48L142.38 28.85L142.21 28.02L141.75 27.06L141.12 26.04L140.47 25.06L139.9 24.25L139.52 23.71L139.38 23.51" fill="none" stroke="#902722" stroke-width="1.4" stroke-linecap="round" stroke-linejoin="round"/><path d="M84.62 60.49L84.74 60.25L85.02 59.58L85.3 58.57L85.45 57.36L85.4 56.16L85.17 55.2L84.94 54.42L84.75 53.83L84.64 53.5L84.62 53.44L84.62 53.44L84.62 53.44L84.62 53.44L84.62 53.47L84.62 53.78L84.62 54.35L84.62 55.05L84.62 55.82L84.62 56.51L84.62 56.97L84.62 57.1L84.62 57.1L84.62 57.1L84.62 57.1L84.62 57.1L84.62 57.1L84.62 57.1L84.62 57.1L84.62 56.8L84.62 56.15L84.62 55.5L84.62 55.2L84.35 55.05L83.6 54.61L82.42 53.9L80.88 52.9L79.06 51.59L77.16 49.97L75.48 48.14L74.44 46.38L74 44.64L73.85 42.67L74.07 40.66L74.67 38.73L75.61 36.94L76.87 35.36L78.41 34.05L80.16 33.04L82.07 32.38L84.07 32.09L86.09 32.18L88.06 32.64L89.9 33.47L91.56 34.62L92.98 36.06L94.1 37.74L94.88 39.6L95.31 41.58L95.36 43.6L95.03 45.59L94.34 47.49L93.3 49.22L91.95 50.73L90.35 51.96L88.55 52.87L86.61 53.43L84.6 53.62L82.58 53.42L80.64 52.86L78.85 51.94L77.25 50.7L75.91 49.19L74.88 47.45L74.19 45.55L73.87 43.56L73.93 41.54L74.36 39.56L75.16 37.7L76.28 36.03L77.7 34.59L79.37 33.45L81.22 32.63L83.19 32.17L85.2 32.1L87.2 32.39L89.11 33.06L90.86 34.07L92.39 35.39L93.64 36.98L94.58 38.77L95.17 40.7L95.38 42.71L95.22 44.72L94.69 46.67L93.79 48.48L92.58 50.1L91.09 51.46L89.36 52.51L87.47 53.23L85.49 53.58L83.46 53.56L81.49 53.15L79.62 52.39L77.92 51.28L76.46 49.88L75.29 48.24L74.45 46.4L73.97 44.44L73.86 42.42L74.12 40.42L74.76 38.5L75.75 36.74L77.05 35.19L78.61 33.91L80.38 32.95L82.25 32.34L84 32.09L85.54 31.9L86.7 31.62L87.39 31.18L87.62 30.54L87.44 29.72L86.98 28.76L86.36 27.73L85.7 26.76L85.14 25.95L84.76 25.4L84.62 25.2" fill="none" stroke="#ffca39" stroke-width="1.4" stroke-linecap="round" stroke-linejoin="round"/><path d="M86.31 26.9L86.44 27.14L86.72 27.81L87 28.82L87.15 30.03L87.09 31.23L86.87 32.19L86.63 32.97L86.45 33.56L86.33 33.9L86.31 33.96L86.31 33.96L86.31 33.96L86.31 33.96L86.31 33.93L86.31 33.61L86.31 33.04L86.31 32.34L86.31 31.57L86.31 30.89L86.31 30.42L86.31 30.29L86.31 30.29L86.31 30.29L86.31 30.29L86.31 30.29L86.31 30.29L86.31 30.29L86.31 30.29L86.31 30.59L86.31 31.24L86.31 31.9L86.31 32.19L86.58 32.35L87.33 32.78L88.51 33.49L90.05 34.49L91.87 35.81L93.77 37.43L95.45 39.25L96.49 41.02L96.93 42.75L97.08 44.73L96.86 46.74L96.26 48.67L95.32 50.45L94.06 52.03L92.52 53.35L90.77 54.35L88.86 55.01L86.86 55.3L84.84 55.21L82.87 54.75L81.03 53.93L79.37 52.78L77.95 51.33L76.83 49.65L76.05 47.79L75.62 45.82L75.57 43.8L75.9 41.8L76.6 39.91L77.63 38.17L78.98 36.66L80.58 35.43L82.38 34.52L84.32 33.96L86.33 33.78L88.35 33.97L90.29 34.54L92.09 35.45L93.68 36.69L95.02 38.21L96.05 39.94L96.74 41.84L97.06 43.84L97 45.86L96.57 47.83L95.77 49.69L94.65 51.37L93.23 52.8L91.56 53.95L89.71 54.76L87.75 55.22L85.73 55.3L83.73 55L81.82 54.33L80.07 53.32L78.54 52L77.29 50.42L76.35 48.63L75.76 46.7L75.55 44.69L75.71 42.67L76.25 40.72L77.14 38.91L78.35 37.3L79.84 35.94L81.57 34.88L83.46 34.16L85.45 33.81L87.47 33.84L89.45 34.24L91.32 35.01L93.01 36.11L94.47 37.51L95.64 39.16L96.48 40.99L96.96 42.95L97.07 44.97L96.81 46.97L96.17 48.89L95.18 50.65L93.89 52.2L92.32 53.48L90.55 54.45L88.68 55.05L86.93 55.3L85.39 55.49L84.23 55.78L83.54 56.22L83.31 56.85L83.49 57.67L83.95 58.64L84.57 59.66L85.23 60.63L85.79 61.45L86.17 61.99L86.31 62.19" fill="none" stroke="#f8433a" stroke-width="1.4" stroke-linecap="round" stroke-linejoin="round"/></svg><path d="M456 0L456 84" stroke="#2a221c" stroke-width="1" fill="none"/><svg x="456" y="84" width="224" height="14" viewBox="0 0 224 14"><rect x="0.5" width="223" height="14" fill="#c0b070"/><text x="3" y="10" fill="#1d1510" font-size="9" font-family="ui-monospace, Menlo, monospace">balance-and-swing</text></svg><svg x="680" y="0" width="112" height="84" viewBox="0 0 112 84"><rect width="112" height="84" fill="#7fae6a" fill-opacity="0.18"/><path d="M81.69 57.1L81.69 57.1L81.69 57.1L81.69 57.1L81.69 57.1L81.69 57.1L81.69 57.1L81.69 57.1L81.69 57.1L81.69 57.1L81.69 57.1L81.69 57.1L81.69 57.1L81.69 57.1L81.69 57.1L81.69 57.1L81.69 57.1L81.69 57.1L81.69 57.1L81.64 57.02L81.52 56.81L81.33 56.48L81.08 56.04L80.78 55.52L80.44 54.93L80.07 54.29L79.67 53.61L79.27 52.92L78.87 52.22L78.48 51.55L78.11 50.91L77.77 50.32L77.47 49.79L77.22 49.36L77.03 49.02L76.91 48.81L76.86 48.74L76.88 48.75L76.94 48.77L77.03 48.81L77.15 48.85L77.3 48.91L77.48 48.98L77.67 49.05L77.89 49.12L78.11 49.19L78.35 49.26L78.6 49.33L78.85 49.39L79.11 49.45L79.36 49.5L79.62 49.55L79.87 49.58L80.14 49.75L80.43 50.18L80.72 50.8L80.98 51.58L81.2 52.46L81.38 53.38L81.51 54.31L81.59 55.18L81.65 55.94L81.67 56.55L81.68 56.95L81.69 57.1" fill="none" stroke="#a17521" stroke-width="1.4" stroke-linecap="round" stroke-linejoin="round"/><path d="M83.38 23.51L83.34 23.64L83.2 24.03L82.97 24.66L82.66 25.52L82.28 26.59L81.82 27.84L81.28 29.26L80.67 30.82L79.98 32.5L79.21 34.25L78.35 36.04L77.39 37.85L76.32 39.63L75.13 41.34L73.83 42.95L72.4 44.44L70.85 45.78L69.18 46.95L67.4 47.94L65.51 48.75L63.55 49.38L61.53 49.84L59.47 50.16L57.4 50.34L55.36 50.41L53.37 50.4L51.45 50.33L49.65 50.22L47.98 50.08L46.47 49.94L45.14 49.8L44.01 49.68L43.1 49.58L42.44 49.51L42.02 49.46L41.88 49.44L41.83 49.46L41.67 49.49L41.42 49.54L41.08 49.62L40.66 49.7L40.16 49.8L39.6 49.91L38.98 50.02L38.32 50.14L37.6 50.26L36.86 50.38L36.08 50.49L35.29 50.6L34.49 50.7L33.69 50.8L32.89 50.89L32.13 51.11L31.43 51.58L30.77 52.26L30.13 53.08L29.52 54L28.95 54.96L28.41 55.92L27.92 56.82L27.51 57.61L27.19 58.23L26.99 58.65L26.92 58.8" fill="none" stroke="#902722" stroke-width="1.4" stroke-linecap="round" stroke-linejoin="round"/><path d="M28.62 25.2L28.62 25.2L28.62 25.2L28.62 25.2L28.62 25.2L28.62 25.2L28.62 25.2L28.62 25.2L28.62 25.2L28.62 25.2L28.62 25.2L28.62 25.2L28.62 25.2L28.62 25.2L28.62 25.2L28.62 25.2L28.62 25.2L28.62 25.2L28.62 25.2L28.66 25.28L28.78 25.49L28.97 25.82L29.23 26.26L29.53 26.78L29.87 27.37L30.24 28.01L30.63 28.69L31.03 29.38L31.43 30.08L31.82 30.75L32.19 31.4L32.53 31.99L32.83 32.51L33.08 32.95L33.27 33.28L33.4 33.49L33.44 33.56L33.42 33.56L33.36 33.53L33.27 33.5L33.15 33.45L33 33.39L32.82 33.33L32.63 33.26L32.42 33.19L32.19 33.11L31.95 33.04L31.7 32.97L31.45 32.91L31.2 32.85L30.94 32.8L30.69 32.76L30.44 32.72L30.17 32.55L29.87 32.13L29.59 31.5L29.33 30.73L29.1 29.85L28.93 28.92L28.8 28L28.71 27.13L28.66 26.36L28.63 25.75L28.62 25.35L28.62 25.2" fill="none" stroke="#ffca39" stroke-width="1.4" stroke-linecap="round" stroke-linejoin="round"/><path d="M30.31 62.19L30.36 62.06L30.5 61.67L30.73 61.03L31.03 60.17L31.42 59.11L31.88 57.85L32.41 56.43L33.02 54.87L33.71 53.2L34.49 51.45L35.35 49.65L36.31 47.85L37.38 46.07L38.56 44.36L39.87 42.74L41.3 41.25L42.85 39.92L44.52 38.75L46.3 37.76L48.18 36.95L50.15 36.32L52.17 35.85L54.23 35.54L56.29 35.36L58.34 35.28L60.33 35.3L62.24 35.37L64.05 35.48L65.72 35.62L67.23 35.76L68.56 35.89L69.69 36.02L70.59 36.12L71.26 36.19L71.67 36.24L71.81 36.25L71.87 36.24L72.03 36.21L72.28 36.15L72.62 36.08L73.04 36L73.53 35.9L74.09 35.79L74.71 35.68L75.38 35.56L76.09 35.44L76.84 35.32L77.61 35.21L78.4 35.1L79.21 34.99L80.01 34.9L80.81 34.81L81.57 34.59L82.27 34.11L82.93 33.44L83.56 32.62L84.17 31.7L84.75 30.74L85.29 29.78L85.77 28.88L86.19 28.09L86.5 27.46L86.71 27.05L86.78 26.9" fill="none" stroke="#f8433a" stroke-width="1.4" stroke-linecap="round" stroke-linejoin="round"/></svg><path d="M680 0L680 84" stroke="#2a221c" stroke-width="1" fill="none"/><svg x="680" y="84" width="112" height="14" viewBox="0 0 112 14"><rect x="0.5" width="111" height="14" fill="#7fae6a"/><text x="3" y="10" fill="#1d1510" font-size="9" font-family="ui-monospace, Menlo, monospace">robins-chain</text></svg><svg x="792" y="0" width="112" height="84" viewBox="0 0 112 84"><rect width="112" height="84" fill="#88b8cf" fill-opacity="0.18"/><path d="M81.69 57.1L81.34 57.06L80.4 56.93L78.99 56.7L77.26 56.35L75.32 55.87L73.32 55.25L71.37 54.54L69.58 53.78L68.04 53.05L66.85 52.41L66.08 51.97L65.81 51.81L65.95 51.66L66.36 51.23L66.99 50.5L67.78 49.45L68.65 48.06L69.52 46.32L70.26 44.21L70.77 41.75L70.92 39.01L70.59 36.05L69.68 33L68.14 30L65.94 27.24L63.11 24.9L59.74 23.16L55.97 22.17L51.99 22.05L48.03 22.85L44.32 24.56L41.1 27.1L38.56 30.32L36.85 34.03L36.05 37.99L36.17 41.97L37.16 45.74L38.9 49.11L41.24 51.94L44 54.14L47 55.68L50.05 56.59L53.01 56.92L55.75 56.77L58.21 56.26L60.32 55.52L62.06 54.65L63.45 53.78L64.5 52.99L65.23 52.36L65.66 51.95L65.81 51.81L66.08 51.97L66.85 52.41L68.04 53.05L69.58 53.78L71.37 54.54L73.32 55.25L75.32 55.87L77.26 56.35L78.99 56.7L80.4 56.93L81.34 57.06L81.69 57.1" fill="none" stroke="#a17521" stroke-width="1.4" stroke-linecap="round" stroke-linejoin="round"/><path d="M26.92 58.8L27.26 58.76L28.2 58.63L29.61 58.4L31.35 58.05L33.29 57.56L35.29 56.95L37.24 56.24L39.03 55.48L40.56 54.74L41.75 54.11L42.52 53.67L42.8 53.5L42.94 53.65L43.38 54.05L44.1 54.68L45.15 55.47L46.54 56.35L48.29 57.21L50.4 57.96L52.85 58.47L55.6 58.61L58.56 58.28L61.61 57.38L64.6 55.84L67.36 53.64L69.71 50.81L71.45 47.44L72.44 43.67L72.56 39.69L71.76 35.73L70.04 32.02L67.5 28.8L64.28 26.26L60.58 24.55L56.61 23.75L52.64 23.87L48.86 24.85L45.49 26.6L42.66 28.94L40.46 31.7L38.92 34.69L38.02 37.74L37.69 40.7L37.84 43.45L38.34 45.9L39.09 48.01L39.95 49.76L40.83 51.15L41.62 52.2L42.25 52.93L42.66 53.36L42.8 53.5L42.52 53.67L41.75 54.11L40.56 54.74L39.03 55.48L37.24 56.24L35.29 56.95L33.29 57.56L31.35 58.05L29.61 58.4L28.2 58.63L27.26 58.76L26.92 58.8" fill="none" stroke="#902722" stroke-width="1.4" stroke-linecap="round" stroke-linejoin="round"/><path d="M28.62 25.2L28.96 25.24L29.9 25.37L31.31 25.6L33.05 25.95L34.98 26.44L36.99 27.05L38.94 27.76L40.73 28.52L42.26 29.26L43.45 29.89L44.22 30.33L44.5 30.5L44.35 30.64L43.95 31.07L43.32 31.8L42.53 32.85L41.65 34.24L40.79 35.99L40.04 38.1L39.53 40.55L39.39 43.3L39.72 46.26L40.62 49.31L42.16 52.3L44.36 55.06L47.19 57.4L50.56 59.15L54.33 60.13L58.31 60.25L62.27 59.45L65.98 57.74L69.2 55.2L71.74 51.98L73.45 48.27L74.25 44.31L74.13 40.33L73.15 36.56L71.4 33.19L69.06 30.36L66.3 28.16L63.31 26.62L60.26 25.72L57.3 25.39L54.55 25.53L52.1 26.04L49.99 26.79L48.24 27.65L46.85 28.53L45.8 29.32L45.07 29.95L44.64 30.35L44.5 30.5L44.22 30.33L43.45 29.89L42.26 29.26L40.73 28.52L38.94 27.76L36.99 27.05L34.98 26.44L33.05 25.95L31.31 25.6L29.9 25.37L28.96 25.24L28.62 25.2" fill="none" stroke="#ffca39" stroke-width="1.4" stroke-linecap="round" stroke-linejoin="round"/><path d="M86.78 26.9L86.44 26.94L85.49 27.07L84.09 27.3L82.35 27.65L80.41 28.13L78.41 28.75L76.46 29.46L74.67 30.22L73.14 30.95L71.95 31.59L71.17 32.03L70.9 32.19L70.75 32.05L70.32 31.64L69.59 31.01L68.54 30.22L67.16 29.35L65.41 28.48L63.3 27.74L60.84 27.23L58.1 27.08L55.14 27.41L52.09 28.32L49.09 29.86L46.33 32.06L43.99 34.89L42.25 38.26L41.26 42.03L41.14 46.01L41.94 49.97L43.65 53.68L46.19 56.9L49.42 59.44L53.12 61.15L57.08 61.95L61.06 61.83L64.83 60.84L68.2 59.1L71.03 56.76L73.23 54L74.78 51L75.68 47.95L76.01 44.99L75.86 42.25L75.35 39.79L74.61 37.68L73.74 35.94L72.87 34.55L72.08 33.5L71.45 32.77L71.04 32.34L70.9 32.19L71.17 32.03L71.95 31.59L73.14 30.95L74.67 30.22L76.46 29.46L78.41 28.75L80.41 28.13L82.35 27.65L84.09 27.3L85.49 27.07L86.44 26.94L86.78 26.9" fill="none" stroke="#f8433a" stroke-width="1.4" stroke-linecap="round" stroke-linejoin="round"/></svg><path d="M792 0L792 84" stroke="#2a221c" stroke-width="1" fill="none"/><svg x="792" y="84" width="112" height="14" viewBox="0 0 112 14"><rect x="0.5" width="111" height="14" fill="#88b8cf"/><text x="3" y="10" fill="#1d1510" font-size="9" font-family="ui-monospace, Menlo, monospace">star</text></svg><path d="M232 0L232 84" stroke="#4a3d31" stroke-width="1.5" fill="none"/><path d="M456 0L456 84" stroke="#4a3d31" stroke-width="1.5" fill="none"/><path d="M680 0L680 84" stroke="#4a3d31" stroke-width="1.5" fill="none"/></svg>